<svg width="70" height="70" viewBox="0 0 70 70" fill="none" xmlns="http://www.w3.org/2000/svg">
<path d="M15.2119 9.69898L2.58357 16.4013C2.36979 16.5138 2.16469 16.642 1.96998 16.785L34.2617 33.6237L47.7839 26.9354L15.2119 9.69898ZM69.9937 20.5244L53.8386 28.5148V37.5167C53.8386 38.6489 52.9207 39.5668 51.7885 39.5668C50.6563 39.5668 49.7384 38.6489 49.7384 37.5167V30.5429L36.2872 37.196V69.7754C36.3293 69.7558 36.372 69.7378 36.4137 69.717L67.337 54.0484C68.9798 53.227 70 51.5765 70 49.7391V20.7055C70 20.6447 69.9959 20.5847 69.9937 20.5244ZM67.337 16.3962L36.4264 0.734061L36.4135 0.727635C35.0372 0.0424005 33.4018 0.0577131 32.0383 0.768651L19.5884 7.37613L52.3147 24.6942L68.1112 16.8811C67.8689 16.6955 67.6097 16.5332 67.337 16.3962ZM0.00970703 20.387C0.00372446 20.4811 0.00048741 20.5755 0 20.6698L0 49.7747C0 51.5742 0.989844 53.2088 2.58344 54.0432L32.0251 69.669L32.0384 69.676C32.0873 69.7016 32.1374 69.7241 32.187 69.7478V37.1659L0.00970703 20.387ZM22.1147 44.7142L13.9506 49.5038C13.9401 49.51 13.9293 49.5152 13.9188 49.5211C13.9136 49.5239 13.9089 49.5275 13.9037 49.5303C13.8914 49.5372 13.8789 49.5429 13.8664 49.5495C13.8456 49.5604 13.8249 49.5712 13.8039 49.5813C13.7841 49.5909 13.7642 49.5998 13.7442 49.6087C13.723 49.6181 13.702 49.6276 13.6806 49.6362C13.6601 49.6445 13.6393 49.652 13.6187 49.6597C13.5976 49.6673 13.5767 49.6753 13.5557 49.6822C13.5341 49.6894 13.5122 49.6956 13.4904 49.7021C13.4701 49.7081 13.4498 49.7144 13.4293 49.7197C13.4057 49.7259 13.382 49.7309 13.3584 49.7363C13.3396 49.7405 13.3209 49.745 13.3021 49.7487C13.2754 49.7539 13.2486 49.7577 13.2218 49.7618C13.2058 49.7643 13.1898 49.7673 13.1737 49.7693C13.1414 49.7734 13.1091 49.7763 13.0767 49.7788C13.0661 49.7796 13.0554 49.7811 13.0447 49.7818C13.0014 49.7845 12.9579 49.786 12.9147 49.786C12.8897 49.786 12.865 49.7845 12.8399 49.7836C12.8207 49.7829 12.8014 49.7829 12.7822 49.7816C12.7597 49.7801 12.7373 49.7774 12.7147 49.7751C12.693 49.7729 12.6712 49.7714 12.6496 49.7687C12.6286 49.7659 12.6078 49.762 12.5869 49.7585C12.5639 49.7548 12.5409 49.7516 12.5181 49.7472C12.4984 49.7434 12.4791 49.7383 12.4596 49.7339C12.4358 49.7285 12.4119 49.7235 12.3882 49.7172C12.3694 49.7123 12.3509 49.7062 12.3323 49.7007C12.3084 49.6936 12.2845 49.6869 12.2608 49.679C12.2426 49.6728 12.2247 49.6658 12.2067 49.6591C12.183 49.6505 12.1592 49.6421 12.1358 49.6325C12.1182 49.6254 12.101 49.6172 12.0836 49.6095C12.0604 49.5993 12.037 49.5891 12.0142 49.5781C11.9968 49.5696 11.98 49.5603 11.9629 49.5514C11.9406 49.5398 11.9182 49.5283 11.8963 49.5159C11.8789 49.506 11.8621 49.4953 11.845 49.485C11.8241 49.4722 11.8031 49.4597 11.7826 49.4461C11.7652 49.4348 11.7484 49.4225 11.7314 49.4106C11.7119 49.3968 11.6922 49.3831 11.673 49.3686C11.6558 49.3556 11.6391 49.3418 11.6223 49.3281C11.6044 49.3137 11.5864 49.2992 11.5689 49.284C11.5516 49.2691 11.535 49.2534 11.5183 49.2379C11.502 49.2227 11.4856 49.2078 11.4697 49.1921C11.4528 49.1753 11.4365 49.1579 11.4201 49.1404C11.4054 49.1247 11.3906 49.1091 11.3762 49.0928C11.3598 49.0744 11.3441 49.0551 11.3284 49.036C11.315 49.0196 11.3014 49.0033 11.2885 48.9863C11.2731 48.9664 11.2584 48.9457 11.2436 48.9251C11.2311 48.9077 11.2188 48.8901 11.2068 48.8723C11.1929 48.8512 11.1794 48.8298 11.1662 48.8082C11.1588 48.7962 11.1509 48.7848 11.1438 48.7727C11.1407 48.7673 11.1385 48.7619 11.1355 48.7567C11.1295 48.7463 11.1229 48.7366 11.1171 48.726L8.76709 44.4682C8.21994 43.477 8.58006 42.2298 9.57141 41.6827C10.5622 41.1355 11.8096 41.4955 12.3569 42.4869L13.6901 44.9021L20.039 41.1774C21.015 40.6045 22.2713 40.9317 22.8445 41.9083C23.4184 42.8851 23.0913 44.141 22.1147 44.7142Z" fill="#00C2FF"/>
</svg>
